<svg width="192" height="33" fill="none" xmlns="http://www.w3.org/2000/svg"><path d="M55.5 22.248V26H42.536V6.596h4.368v15.652H55.5zm5.934-5.964c0 .952.112 1.81.336 2.576.243.765.579 1.428 1.008 1.988.448.541.99.961 1.624 1.26.635.299 1.363.448 2.184.448.803 0 1.522-.15 2.156-.448a4.343 4.343 0 001.624-1.26 5.71 5.71 0 001.008-1.988c.243-.765.364-1.624.364-2.576s-.121-1.81-.364-2.576c-.224-.784-.56-1.447-1.008-1.988a4.23 4.23 0 00-1.624-1.288c-.634-.299-1.353-.448-2.156-.448-.821 0-1.549.159-2.184.476a4.525 4.525 0 00-1.624 1.288c-.429.541-.765 1.204-1.008 1.988-.224.765-.336 1.615-.336 2.548zm14.812 0c0 1.661-.252 3.127-.756 4.396-.485 1.25-1.157 2.305-2.016 3.164-.858.84-1.885 1.475-3.08 1.904-1.176.43-2.445.644-3.808.644-1.325 0-2.576-.215-3.752-.644a8.725 8.725 0 01-3.08-1.904c-.877-.859-1.568-1.913-2.072-3.164-.504-1.27-.756-2.735-.756-4.396s.262-3.117.784-4.368c.523-1.27 1.223-2.333 2.1-3.192a8.861 8.861 0 013.08-1.932 10.693 10.693 0 013.696-.644c1.326 0 2.576.215 3.752.644a8.533 8.533 0 013.08 1.932c.878.859 1.568 1.923 2.072 3.192.504 1.25.756 2.707.756 4.368zm13.106-6.328c-2.035 0-3.51.57-4.425 1.708-.896 1.12-1.344 2.66-1.344 4.62 0 .952.112 1.82.337 2.604a5.71 5.71 0 001.007 1.988 4.67 4.67 0 001.68 1.316c.672.299 1.457.448 2.353.448.485 0 .896-.01 1.232-.028a6.02 6.02 0 00.924-.112v-6.748h4.368v9.604c-.523.205-1.363.42-2.52.644-1.158.243-2.586.364-4.284.364-1.457 0-2.782-.224-3.977-.672a8.306 8.306 0 01-3.023-1.96c-.84-.859-1.494-1.913-1.96-3.164-.448-1.25-.672-2.679-.672-4.284 0-1.624.251-3.061.755-4.312.505-1.25 1.195-2.305 2.073-3.164a8.668 8.668 0 013.08-1.988 10.755 10.755 0 013.807-.672c.915 0 1.736.065 2.465.196.746.112 1.38.252 1.904.42.54.15.98.308 1.316.476.354.168.606.299.756.392l-1.26 3.5a10.66 10.66 0 00-2.073-.812c-.765-.243-1.605-.364-2.52-.364zm13.864 6.328c0 .952.112 1.81.336 2.576.242.765.578 1.428 1.008 1.988.448.541.989.961 1.624 1.26.634.299 1.362.448 2.184.448.802 0 1.521-.15 2.156-.448a4.35 4.35 0 001.624-1.26 5.71 5.71 0 001.008-1.988c.242-.765.364-1.624.364-2.576s-.122-1.81-.364-2.576c-.224-.784-.56-1.447-1.008-1.988a4.23 4.23 0 00-1.624-1.288c-.635-.299-1.354-.448-2.156-.448-.822 0-1.55.159-2.184.476a4.522 4.522 0 00-1.624 1.288c-.43.541-.766 1.204-1.008 1.988-.224.765-.336 1.615-.336 2.548zm14.812 0c0 1.661-.252 3.127-.756 4.396-.486 1.25-1.158 2.305-2.016 3.164-.859.84-1.886 1.475-3.08 1.904-1.176.43-2.446.644-3.808.644a10.86 10.86 0 01-3.752-.644 8.722 8.722 0 01-3.08-1.904c-.878-.859-1.568-1.913-2.072-3.164-.504-1.27-.756-2.735-.756-4.396s.261-3.117.784-4.368c.522-1.27 1.222-2.333 2.1-3.192a8.856 8.856 0 013.08-1.932 10.693 10.693 0 013.696-.644c1.325 0 2.576.215 3.752.644a8.538 8.538 0 013.08 1.932c.877.859 1.568 1.923 2.072 3.192.504 1.25.756 2.707.756 4.368zm17.376-9.688v3.724h-5.852V26h-4.368V10.32h-5.852V6.596h16.072zm10.877 7.98a106.87 106.87 0 002.24-3.976 61.411 61.411 0 001.96-4.004h4.816a125.137 125.137 0 01-3.304 6.076 158.01 158.01 0 01-3.612 5.908V26h-4.368v-7.364a167.786 167.786 0 01-3.64-5.936 134.67 134.67 0 01-3.304-6.104h5.068a71.03 71.03 0 001.932 4.004 84.016 84.016 0 002.212 3.976zm17.223-8.204c2.894 0 5.115.513 6.664 1.54 1.55 1.008 2.324 2.67 2.324 4.984 0 2.333-.784 4.023-2.352 5.068-1.568 1.027-3.808 1.54-6.72 1.54h-1.372V26h-4.368V6.876c.952-.187 1.96-.317 3.024-.392a40.617 40.617 0 012.8-.112zm.28 3.724c-.317 0-.634.01-.952.028-.298.019-.56.037-.784.056v5.6h1.372c1.512 0 2.651-.205 3.416-.616.766-.41 1.148-1.176 1.148-2.296 0-.541-.102-.99-.308-1.344a2.016 2.016 0 00-.84-.84c-.354-.224-.793-.373-1.316-.448a9.904 9.904 0 00-1.736-.14zM175.7 26V6.596h13.104v3.668h-8.736v3.808h7.756v3.584h-7.756v4.676h9.38V26H175.7z" fill="#fff"/><path fill-rule="evenodd" clip-rule="evenodd" d="M4.707 0h23.537a4.71 4.71 0 014.708 4.714v23.572A4.71 4.71 0 0128.244 33H4.707A4.71 4.71 0 010 28.286V4.714A4.71 4.71 0 014.707 0z" fill="#fff"/></svg>