<svg width="33" height="31" fill="none" xmlns="http://www.w3.org/2000/svg"><path d="M10.632 20.334h17.534a.967.967 0 00.93-.701l3.867-13.535a.967.967 0 00-.93-1.233H8.403l-.692-3.11a.967.967 0 00-.943-.757H.967a.967.967 0 100 1.934h5.025l3.49 15.708a2.905 2.905 0 00-1.748 2.66c0 1.6 1.302 2.901 2.9 2.901h17.532a.967.967 0 100-1.933H10.635a.968.968 0 01-.003-1.933zM30.752 6.8l-3.316 11.6H11.41L8.832 6.8h21.92z" fill="#F44C81"/><path d="M9.668 27.102c0 1.599 1.301 2.9 2.9 2.9 1.6 0 2.9-1.301 2.9-2.9 0-1.6-1.3-2.9-2.9-2.9-1.599 0-2.9 1.3-2.9 2.9zm2.9-.967a.968.968 0 010 1.933.968.968 0 010-1.933zm10.764.967c0 1.599 1.301 2.9 2.9 2.9 1.6 0 2.9-1.301 2.9-2.9 0-1.6-1.3-2.9-2.9-2.9-1.599 0-2.9 1.3-2.9 2.9zm2.9-.967a.968.968 0 010 1.933.968.968 0 010-1.933z" fill="#F44C81"/></svg>