<svg width="29" height="25" fill="none" xmlns="http://www.w3.org/2000/svg"><path d="M27.745 5.14a8.379 8.379 0 00-1.834-2.669A8.55 8.55 0 0019.904.028 8.607 8.607 0 0014.5 1.933 8.607 8.607 0 009.096.028a8.55 8.55 0 00-6.007 2.443 8.329 8.329 0 00-2.51 5.952c0 1.073.218 2.192.653 3.33.364.95.887 1.936 1.554 2.932 1.057 1.576 2.51 3.22 4.315 4.885 2.99 2.762 5.952 4.67 6.078 4.747l.764.49c.338.216.773.216 1.111 0l.764-.49c.126-.08 3.084-1.985 6.078-4.747 1.805-1.666 3.258-3.31 4.315-4.885.667-.996 1.193-1.982 1.554-2.933.434-1.137.654-2.256.654-3.329a8.205 8.205 0 00-.674-3.284zM14.5 22.257S3.027 14.908 3.027 8.423c0-3.284 2.717-5.945 6.069-5.945A6.085 6.085 0 0114.5 5.713a6.085 6.085 0 015.404-3.235c3.352 0 6.069 2.661 6.069 5.945 0 6.484-11.473 13.835-11.473 13.835z" fill="#626262"/></svg>