<svg width="18" height="18" fill="none" xmlns="http://www.w3.org/2000/svg"><path fill-rule="evenodd" clip-rule="evenodd" d="M9 3.938a.563.563 0 01.563.562V9A.563.563 0 019 9.563H4.5a.563.563 0 110-1.126h3.938V4.5A.563.563 0 019 3.937z" fill="#4E4E4E"/><path fill-rule="evenodd" clip-rule="evenodd" d="M8.438 9A.563.563 0 019 8.437h4.5a.562.562 0 110 1.126H9.562V13.5a.562.562 0 11-1.124 0V9z" fill="#4E4E4E"/><path fill-rule="evenodd" clip-rule="evenodd" d="M9 16.875a7.875 7.875 0 100-15.75 7.875 7.875 0 000 15.75zM9 18A9 9 0 109 0a9 9 0 000 18z" fill="#4E4E4E"/></svg>