<svg width="21" height="22" fill="none" xmlns="http://www.w3.org/2000/svg"><path d="M20.5 20.336l-5.662-5.93a8.833 8.833 0 001.877-6.085c-.148-2.204-1.106-4.264-2.674-5.752C12.472 1.08 10.414.279 8.293.33c-2.12.052-4.141.952-5.641 2.515C1.152 4.408.287 6.513.238 8.722a8.804 8.804 0 002.148 5.987c1.429 1.634 3.406 2.631 5.522 2.786a8.034 8.034 0 005.842-1.956l5.692 5.899 1.058-1.102zM1.75 8.938c0-1.391.396-2.75 1.138-3.907a6.817 6.817 0 013.029-2.59 6.5 6.5 0 013.9-.4 6.67 6.67 0 013.456 1.925 7.126 7.126 0 011.847 3.6 7.303 7.303 0 01-.384 4.062 6.977 6.977 0 01-2.486 3.156 6.56 6.56 0 01-3.75 1.185c-1.79 0-3.507-.741-4.773-2.06A7.183 7.183 0 011.75 8.937z" fill="#F44C81"/></svg>