<?xml version="1.0" encoding="utf-8"?><svg viewBox="0 0 112 139" xmlns="http://www.w3.org/2000/svg" xmlns:xlink="http://www.w3.org/1999/xlink"><style>:root>svg{display:none}:root>svg:target{display:block}</style><svg fill="none" viewBox="0 0 104 99" id="24-7" xmlns="http://www.w3.org/2000/svg"><path d="M87.739 80.012c-8.002 7.689-17.91 13.272-28.78 16.217-11.678 3.337-25.55 4.555-33.89-1.45C16.726 88.774 14.021 75.5 12.744 63.62c-1.278-11.88-1.083-22.44 3.787-29.722 4.87-7.281 14.593-11.3 24.662-17.943C51.264 9.313 61.8 0 72.14 0s20.5 9.124 26.165 19.684c5.362 10.194 7.009 21.835 4.674 33.043-2.217 10.334-7.513 19.818-15.24 27.285z" fill="#EFEFEF"/><path d="M44.215 58.486h-.15a.386.386 0 01-.166-.142.367.367 0 01-.06-.206v-9.994h-2.36a5.144 5.144 0 01-3.57-1.428 4.79 4.79 0 01-1.479-3.446V22.12a4.79 4.79 0 011.48-3.445 5.144 5.144 0 013.57-1.428h47.025a5.143 5.143 0 013.561 1.433 4.79 4.79 0 011.474 3.44v21.15a4.79 4.79 0 01-1.474 3.441 5.143 5.143 0 01-3.56 1.433H55.08l-10.61 10.24a.345.345 0 01-.256.102z" fill="#F79"/><path d="M88.505 17.61a4.76 4.76 0 013.305 1.32 4.433 4.433 0 011.37 3.19v21.15a4.36 4.36 0 01-.351 1.725 4.488 4.488 0 01-1.01 1.464c-.432.419-.946.751-1.512.978a4.805 4.805 0 01-1.787.344H54.93L44.216 58.123V47.781H41.48a4.761 4.761 0 01-3.305-1.321 4.433 4.433 0 01-1.37-3.19V22.12c0-1.196.493-2.343 1.37-3.19a4.76 4.76 0 013.305-1.32h47.025zm0-.726H41.48a5.525 5.525 0 00-3.827 1.54 5.146 5.146 0 00-1.584 3.697V43.27c0 1.389.572 2.72 1.59 3.702a5.526 5.526 0 003.836 1.534h1.984v9.617a.722.722 0 00.12.406.76.76 0 00.33.276h.286c.2.002.394-.07.541-.203l10.52-10.154h33.23a5.525 5.525 0 003.826-1.539 5.146 5.146 0 001.584-3.697V22.12c0-1.386-.57-2.716-1.584-3.698a5.525 5.525 0 00-3.827-1.539z" fill="#4E4E4E"/><path d="M53.834 29.084c.007-.482-.1-.958-.314-1.393a3.17 3.17 0 00-.919-1.117 4.618 4.618 0 00-2.78-.885 3.652 3.652 0 00-1.389.138 3.571 3.571 0 00-1.224.646c-.36.291-.656.65-.87 1.053a3.32 3.32 0 00-.38 1.296c0 .972.451 1.103.947 1.103.812 0 1.172-.392 1.172-.682a1.68 1.68 0 01.493-1.22 1.804 1.804 0 011.243-.528c.47-.01.926.162 1.265.476.34.314.536.746.546 1.2 0 1.276-1.382 2.262-2.855 3.307-1.473 1.044-3.006 2.147-3.006 3.467v1.77c0 .26.526.521.917.521h6.673c.21 0 .526-.377.526-.899s-.316-.87-.526-.87h-5.26v-.508c0-.827.991-1.45 2.134-2.248 1.578-1.088 3.607-2.423 3.607-4.627zM62.88 33.522h-1.156v-1.61c0-.247-.346-.508-1.112-.508-.767 0-1.098.261-1.098.508v1.61H56.96l3.577-6.919a.558.558 0 000-.189c0-.232-.24-.406-.375-.493a1.678 1.678 0 00-.722-.232.988.988 0 00-.534.138.94.94 0 00-.367.399l-4.329 8.196a.762.762 0 00-.105.391.56.56 0 00.158.454.6.6 0 00.458.184h4.794v2.263c0 .247.391.522 1.098.522.706 0 1.112-.275 1.112-.522v-2.277h1.157c.18 0 .541-.435.541-.957 0-.523-.3-.958-.541-.958zM72.635 24.95a.511.511 0 00-.27.057.488.488 0 00-.196.189L65.586 38.25a.422.422 0 000 .188.66.66 0 00.223.435.706.706 0 00.469.175.635.635 0 00.525-.247l6.598-13.055a.35.35 0 000-.188.676.676 0 00-.253-.457.724.724 0 00-.513-.153zM83.335 25.69h-6.688c-.48 0-.916.318-.916.521v2.8c0 .247.48.522 1.082.522.6 0 1.127-.305 1.127-.522v-1.552h4.073v1.784l-4.614 7.702a.535.535 0 00-.075.305c0 .61.781 1.073 1.503 1.073.405 0 .48-.13.51-.188l4.389-8.109a4.124 4.124 0 00.556-1.552v-2.263a.972.972 0 00-.392-.398 1.021 1.021 0 00-.555-.124z" fill="#4E4E4E"/><path d="M50.858 90.5c-10.896 0-24.046-6.368-34.341-16.638C.33 57.717-4.51 36.786 5.83 27.169c.203-.177.44-.311.7-.396.258-.085.531-.118.803-.098 2.12 0 5.666 2.118 8.837 5.28 3.442 3.453 9.168 11.083 7.35 12.794-1.976 1.868-3.11 4.41-3.159 7.08-.047 2.668.995 5.247 2.903 7.18l8.897 8.877c1.937 1.904 4.572 2.997 7.337 3.04 2.765.044 5.436-.965 7.436-2.808a1.348 1.348 0 01.962-.32c2.6 0 8.777 4.555 12.023 7.834 4.253 4.22 6.237 8.558 4.614 10.066-3.718 3.27-8.62 4.995-13.646 4.802h-.03z" fill="#CCC"/><path d="M7.273 27.038c1.969 0 5.38 2.002 8.567 5.164 3.967 3.96 8.761 10.966 7.349 12.286-2.053 1.934-3.231 4.572-3.279 7.34-.048 2.768 1.039 5.443 3.023 7.441l8.897 8.907c2 1.988 4.734 3.13 7.605 3.176 2.87.047 5.642-1.007 7.71-2.93a.984.984 0 01.691-.217c2.3 0 8.266 4.207 11.783 7.717 3.967 3.96 6.011 8.239 4.629 9.559-3.647 3.2-8.452 4.883-13.376 4.685-10.52 0-23.415-5.903-34.07-16.536C.72 57.587-4.059 36.917 6.085 27.43a1.707 1.707 0 011.187-.392zm0-.725a2.442 2.442 0 00-1.713.595C.465 31.68-1.203 39.252.87 48.23c2.075 8.979 7.515 18.045 15.375 25.878C26.6 84.45 39.871 90.863 50.812 90.863c5.122.198 10.118-1.564 13.902-4.903.66-.624 1.172-1.915-.12-4.613a23.269 23.269 0 00-4.48-5.918c-3.32-3.308-9.618-7.935-12.323-7.935a1.735 1.735 0 00-1.217.42c-1.923 1.791-4.502 2.773-7.174 2.73-2.671-.044-5.215-1.109-7.074-2.961L23.43 58.82a9.745 9.745 0 01-2.14-3.219 9.473 9.473 0 01.154-7.5 9.783 9.783 0 012.272-3.134c.616-.566 1.127-1.828-1.503-6.049a42.986 42.986 0 00-5.801-7.252c-3.277-3.279-6.853-5.396-9.093-5.396l-.045.043z" fill="#4E4E4E"/><path d="M21.04 73.31C5.276 57.617.39 37.469 9.77 27.75c-1.653-.769-3.006-.943-3.682-.32-10.145 9.488-5.366 30.158 10.7 46.172C28.81 85.655 43.84 91.63 54.916 89.818 44.47 89.76 31.56 83.9 21.04 73.311zM50.257 68.93c-1.503-.725-2.63-1-3.111-.551a10.872 10.872 0 01-4.66 2.51 11.067 11.067 0 007.77-1.959z" fill="#AAA"/><path d="M47.296 55.12v-7.339H44.56a4.76 4.76 0 01-3.305-1.321 4.433 4.433 0 01-1.37-3.19V22.12c0-1.196.493-2.343 1.37-3.19a4.76 4.76 0 013.305-1.32h-3.006a4.76 4.76 0 00-3.305 1.32 4.433 4.433 0 00-1.37 3.19v21.15c0 1.196.493 2.344 1.37 3.19a4.76 4.76 0 003.305 1.321h2.735v10.343l3.006-3.003z" fill="#EF608F"/></svg><svg fill="none" viewBox="0 0 112 139" id="bag" xmlns="http://www.w3.org/2000/svg"><path d="M86.57 119.905c-8.567 7.335-19.19 12.657-30.849 15.455-12.531 3.178-27.456 4.339-36.34-1.396-8.884-5.734-11.767-18.347-13.198-29.665-1.432-11.317-1.177-21.374 4.079-28.302 5.256-6.929 15.689-10.763 26.416-17.12 10.728-6.356 22.083-15.135 33.164-15.135 11.08 0 21.984 8.712 28.044 18.7 5.76 9.71 7.529 20.803 5.021 31.482-2.369 9.843-8.048 18.875-16.337 25.981z" fill="#EFEFEF"/><path opacity=".3" d="M60.114 55.625l4.172-34.875h39.891v12.281H77.13l-1.547 13.547c1.125-.656 2.594-1.234 4.406-1.734 1.844-.5 3.64-.75 5.39-.75 6.782 0 11.985 2.015 15.61 6.047 3.657 4 5.485 9.625 5.485 16.875 0 4.375-.985 8.343-2.953 11.906-1.938 3.531-4.672 6.25-8.204 8.156-3.53 1.906-7.703 2.86-12.515 2.86-4.282 0-8.297-.876-12.047-2.626-3.75-1.78-6.688-4.203-8.813-7.265-2.125-3.094-3.172-6.578-3.14-10.453h15.843c.157 2.5.954 4.484 2.391 5.953 1.438 1.469 3.328 2.203 5.672 2.203 5.313 0 7.969-3.938 7.969-11.813 0-7.28-3.25-10.921-9.75-10.921-3.688 0-6.438 1.187-8.25 3.562l-12.563-2.953z" fill="#F79"/><path d="M.985 124.345a.574.574 0 01-.372-.135.454.454 0 01-.118-.336l7.55-62.407a.438.438 0 01.166-.268.577.577 0 01.325-.119h11.453c.13 0 .255.045.347.123a.392.392 0 01.143.298v6.087c0 .393.182.77.506 1.047.323.277.762.433 1.22.433.458 0 .897-.156 1.22-.433.324-.278.506-.654.506-1.047v-6.087c0-.112.052-.219.144-.297a.534.534 0 01.346-.124h27.574c.13 0 .255.045.347.123a.392.392 0 01.143.298v6.087c0 .393.182.77.506 1.047.324.277.763.433 1.22.433.458 0 .897-.156 1.22-.433.324-.278.506-.654.506-1.047v-6.087c0-.112.052-.219.144-.297a.534.534 0 01.346-.124H67.88c.124 0 .243.04.334.111.09.072.147.17.157.276l2.294 20.18a.378.378 0 01-.022.17.424.424 0 01-.095.15.577.577 0 01-.373.134H43.817L38.6 123.975a.406.406 0 01-.163.265.54.54 0 01-.327.105H.985z" fill="#CCC"/><path d="M67.88 61.5l2.295 20.18h-26.79l-5.275 42.244H.985l7.55-62.423H19.99v6.087c0 .504.233.988.65 1.344.415.356.978.557 1.566.557.588 0 1.152-.2 1.567-.557.416-.356.65-.84.65-1.344v-6.087h27.573v6.087c0 .504.234.988.65 1.344.415.356.978.557 1.566.557.588 0 1.152-.2 1.567-.557.416-.356.65-.84.65-1.344v-6.087H67.88zm0-.84H56.427c-.26 0-.51.089-.693.246a.785.785 0 00-.287.595v6.087a.997.997 0 01-.365.756c-.234.2-.55.312-.88.312-.33 0-.648-.112-.881-.313a.997.997 0 01-.365-.755v-6.087a.785.785 0 00-.287-.595 1.069 1.069 0 00-.694-.246H24.421c-.26 0-.51.089-.693.246a.785.785 0 00-.287.595v6.087c0 .281-.13.55-.362.75-.232.198-.546.31-.874.31-.327 0-.642-.112-.873-.31a.989.989 0 01-.362-.75v-6.087a.785.785 0 00-.288-.595 1.069 1.069 0 00-.693-.246H8.536c-.242 0-.475.077-.653.217a.786.786 0 00-.308.54L.005 123.84a.703.703 0 00.046.344c.044.11.115.211.209.295.089.091.2.163.326.213.125.049.261.074.4.073H38.11c.244.001.48-.076.661-.216a.805.805 0 00.32-.541l5.177-41.47h25.907c.136 0 .27-.024.395-.07.125-.046.237-.114.33-.199a.855.855 0 00.207-.305.76.76 0 00.049-.35l-2.295-20.18a.825.825 0 00-.324-.537 1.098 1.098 0 00-.657-.22v-.017z" fill="#4E4E4E"/><path d="M38.09 124.345a.542.542 0 01-.2-.036.465.465 0 01-.163-.105.391.391 0 01-.097-.155.348.348 0 01-.01-.175l5.256-42.227a.405.405 0 01.163-.265.54.54 0 01.327-.105H84.55c.118.006.23.046.32.113a.443.443 0 01.17.257l5.256 42.227a.478.478 0 01-.137.336.44.44 0 01-.159.101.51.51 0 01-.194.034H38.091z" fill="#fff"/><path d="M84.629 81.698l5.256 42.226H38.09l5.276-42.227h41.263zm-.079-.841H43.366a1.079 1.079 0 00-.66.216.807.807 0 00-.32.54l-5.257 42.227a.683.683 0 00.035.342c.041.111.11.212.2.297.092.089.203.16.328.209.125.05.26.076.398.077h51.795c.137-.001.273-.027.398-.077a.974.974 0 00.327-.209.767.767 0 00.2-.297.683.683 0 00.035-.342L85.59 81.613a.786.786 0 00-.308-.54 1.055 1.055 0 00-.653-.216h-.079z" fill="#4E4E4E"/><path d="M54.25 69.505c-.291 0-.58-.05-.85-.146a2.246 2.246 0 01-.717-.417 1.883 1.883 0 01-.473-.622 1.648 1.648 0 01-.156-.732V55.043c0-3.14-1.455-6.151-4.044-8.371-2.59-2.22-6.1-3.468-9.763-3.468-3.661 0-7.173 1.248-9.762 3.468-2.59 2.22-4.044 5.231-4.044 8.371v12.545c0 .5-.232.979-.643 1.332-.412.353-.971.552-1.554.552a2.394 2.394 0 01-1.553-.552c-.412-.353-.643-.832-.643-1.332V55.043c.005-4.142 1.926-8.113 5.342-11.042 3.415-2.929 8.047-4.576 12.877-4.58 4.825.008 9.45 1.658 12.857 4.587 3.409 2.929 5.323 6.898 5.323 11.035v12.545a1.65 1.65 0 01-.156.732 1.885 1.885 0 01-.473.622c-.205.179-.449.32-.718.417-.269.097-.558.147-.85.147z" fill="#F44C81"/><path d="M38.287 39.84c4.671.027 9.143 1.63 12.446 4.463 3.304 2.833 5.173 6.667 5.204 10.673v12.612a1.42 1.42 0 01-.562.944c-.317.244-.728.379-1.154.379-.426 0-.837-.135-1.153-.38a1.42 1.42 0 01-.563-.943V55.043c0-3.251-1.506-6.37-4.187-8.669-2.682-2.299-6.318-3.59-10.11-3.59s-7.428 1.291-10.11 3.59c-2.68 2.3-4.187 5.418-4.187 8.67v12.544c0 .388-.18.76-.5 1.035a1.86 1.86 0 01-1.206.428A1.86 1.86 0 0121 68.624c-.32-.274-.5-.647-.5-1.035V55.043c0-4.014 1.86-7.864 5.17-10.702 3.31-2.838 7.8-4.433 12.48-4.433l.138-.067zm-.138-.773c-4.916.044-9.615 1.744-13.082 4.733-3.467 2.99-5.425 7.027-5.45 11.243v12.545c0 .611.282 1.198.786 1.63.504.432 1.188.674 1.9.674.713 0 1.396-.242 1.9-.674.504-.433.787-1.019.787-1.63V55.043c0-3.028 1.403-5.933 3.9-8.074s5.885-3.344 9.416-3.344c3.532 0 6.919 1.203 9.416 3.344 2.497 2.141 3.9 5.046 3.9 8.074v12.545c.145.504.483.952.959 1.272.476.32 1.064.494 1.67.494.605 0 1.193-.174 1.669-.494s.814-.768.958-1.272V55.043c0-4.237-1.955-8.303-5.438-11.309-3.483-3.005-8.212-4.707-13.153-4.734l-.138.067z" fill="#4E4E4E"/><path d="M64.017 107.696c-3.12 0-6.114-1.063-8.32-2.955-2.207-1.892-3.447-4.459-3.447-7.135V89.45c0-.5.231-.979.643-1.332.412-.353.97-.551 1.553-.551s1.142.198 1.554.551c.412.353.643.833.643 1.332v8.207c-.051.854.1 1.709.446 2.511a6.251 6.251 0 001.566 2.157 7.491 7.491 0 002.43 1.452 8.43 8.43 0 002.902.511 8.43 8.43 0 002.902-.511 7.491 7.491 0 002.431-1.452 6.251 6.251 0 001.566-2.157 5.493 5.493 0 00.446-2.511V89.45c.005-.501.241-.98.656-1.333.415-.353.976-.55 1.56-.55.292-.004.581.044.85.14.27.095.515.236.72.415.21.17.379.376.493.604.115.229.174.475.173.724v8.207c-.016 2.667-1.262 5.22-3.467 7.102-2.205 1.881-5.19 2.937-8.3 2.937z" fill="#F79"/><path d="M73.587 87.937c.448.002.876.152 1.197.42.319.279.501.652.51 1.043v8.206c0 2.565-1.188 5.024-3.303 6.838-2.115 1.813-4.983 2.832-7.974 2.832-2.99 0-5.86-1.019-7.974-2.832-2.115-1.814-3.303-4.273-3.303-6.838V89.45c0-.388.18-.76.5-1.035a1.86 1.86 0 011.206-.428c.453 0 .887.154 1.207.428.32.275.5.647.5 1.035v8.207c0 .883.203 1.758.597 2.574a6.767 6.767 0 001.7 2.182 8.032 8.032 0 002.545 1.458 8.99 8.99 0 003.002.512 8.99 8.99 0 003.002-.512 8.03 8.03 0 002.545-1.458 6.764 6.764 0 001.7-2.182 5.907 5.907 0 00.598-2.574V89.45c.005-.39.19-.762.512-1.035.323-.274.76-.428 1.214-.428l.02-.05zm-.02-.79a3.104 3.104 0 00-1.036.17c-.33.114-.63.283-.883.497a2.339 2.339 0 00-.593.75 2.04 2.04 0 00-.213.886v8.207c0 1.56-.723 3.058-2.01 4.162-1.288 1.103-3.034 1.723-4.854 1.723-1.82 0-3.567-.62-4.854-1.723-1.287-1.104-2.01-2.601-2.01-4.162V89.45c0-.611-.283-1.197-.787-1.629-.504-.432-1.188-.675-1.9-.675-.713 0-1.396.243-1.9.675-.504.432-.787 1.018-.787 1.63v8.206c0 2.787 1.291 5.461 3.59 7.432s5.416 3.078 8.667 3.078c3.251 0 6.369-1.107 8.668-3.078 2.298-1.971 3.59-4.645 3.59-7.432V89.45a2.002 2.002 0 00-.2-.912 2.304 2.304 0 00-.605-.77 2.717 2.717 0 00-.898-.51 3.043 3.043 0 00-1.063-.162l.079.05z" fill="#4E4E4E"/><path d="M8.536 61.5l-7.55 62.424h4.06l7.57-62.423h-4.08z" fill="#AAA"/><path d="M43.366 81.698l-5.276 42.226h4.08l5.256-42.227h-4.06z" fill="#E0E0E0"/></svg><svg fill="none" viewBox="0 0 111 100" id="clients" xmlns="http://www.w3.org/2000/svg"><path d="M82.192.185C94.623-1.67 107.945 10.7 110.476 24.482c2.532 13.782-5.529 28.923-14.382 40.96C87.241 77.479 77.907 86.386 65.59 92.44c-12.318 6.053-27.478 9.239-37.76 3.726-10.28-5.513-15.456-19.74-18.511-33.051-3.055-13.312-3.932-25.71 2.659-30.336 6.59-4.627 20.647-1.58 33.431-8.103C58.194 18.15 69.762 2.056 82.192.186z" fill="#EFEFEF"/><path d="M62.219 64.182l1.686-.89 10.15-5.473 1.218-.658a5.54 5.54 0 017.38 2.017L58.735 75.602a16.749 16.749 0 01-10.417 1.471l-13.826-2.547a5.144 5.144 0 00-3.762.5l-7.487 4.734L18.01 62.6l.044-.013a8.968 8.968 0 004.34-2.125l2.291-2.038a15.31 15.31 0 0115.87-1.55l.948.459a10.93 10.93 0 004.761 1.09h9.2a6.842 6.842 0 016.754 5.759z" fill="#FFD9C7"/><path d="M74.938 38.466v6.693H56.63v-7.647a7.608 7.608 0 00-1.292-4.254 6.665 6.665 0 014.035-1.483 5.763 5.763 0 009.092.223c.056-.077.464-.934.534-.998 1.7.105 3.333 1.259 4.5 2.5 1.167 1.241 1.437 3.262 1.438 4.966z" fill="#CCC"/><path d="M74.046 57.803l.008.016-10.15 5.472-1.685.89a6.814 6.814 0 00-2.235-4.05l6.523-3.515 1.66-.896c2.05-1.04 4.742.085 5.879 2.084z" fill="#FFD9C7"/><path d="M70.5 20.5v3c0 1.578-1.285 3.184-2.4 4.3a5.948 5.948 0 01-4.207 1.742c-1.578 0-3.777-.426-4.893-1.542-1.116-1.116-1.056-2.829-1.056-4.407v-2.975c0-1.577.44-3.502 1.556-4.618 1.116-1.116 2.922-2 4.5-2 1.578 0 3.384 1.296 4.5 2.412 1.116 1.116 2 2.51 2 4.088z" fill="#CCC"/><path d="M66.426 56.465l.081.15-6.523 3.516a6.8 6.8 0 00-4.518-1.707h-2.04l5.424-2.95a6.268 6.268 0 017.576.99z" fill="#FFD9C7"/><path d="M55.5 33c.845 1.258 1.133 2.997 1.131 4.512v11.045H31.396V37.512a7.645 7.645 0 017.455-7.645 6.583 6.583 0 0010.388.256c.064-.088.136-.17.215-.244a7.648 7.648 0 013.337 1.001c1.021.586 2.054 1.142 2.709 2.12zM51.5 17v3.398c0 1.802-.725 3.828-2 5.102-1.275 1.274-3.698 2.5-5.5 2.5s-4.225-1.226-5.5-2.5c-1.275-1.274-2-3.198-2-5v-3.398c0-1.802 1.225-3.828 2.5-5.102 1.275-1.274 3.198-2.5 5-2.5s4.225 1.226 5.5 2.5c1.275 1.274 2 3.198 2 5z" fill="#F79"/><path d="M32.397 33.053l.268.24a7.616 7.616 0 00-1.269 4.219v7.647H13.062v-6.693a6.693 6.693 0 016.525-6.691 5.765 5.765 0 009.094.223c.055-.077.118-.148.187-.213a6.652 6.652 0 013.529 1.268zM30.056 20.618v2.975a5.948 5.948 0 11-11.897 0v-2.975a5.948 5.948 0 1111.897 0z" fill="#fff"/><path d="M23.243 79.759l2.413 7.915H9.039L5.347 57.396h11.077l1.587 5.204 5.232 17.159zm-4.552 2.617a2.215 2.215 0 10-4.429 0 2.215 2.215 0 004.43 0z" fill="#F79"/><path d="M16.476 84.592a2.215 2.215 0 100-4.431 2.215 2.215 0 000 4.43z" fill="#fff"/><path d="M74.783 56.253l-.408.22c-1.646-2-4.5-2.775-6.674-1.673l-.023.012L66 56c-1.148-.972-2.002-1.365-3.5-1.5-1.498-.135-2.697.25-4 1l-4.389 3H46.36c-1.493-.002-3.515-.459-4.86-1.107l-.95-.46c-2.7-1.313-5.06-1.725-8.05-1.433-2.99.292-5.539 1.135-7.935 2.946a.974.974 0 00-.065.054l-2.5 2c-.865.77-1.891 1.668-3 2l-1.59-5.405a1.031 1.031 0 00-.986-.73H5.347a1.03 1.03 0 00-1.024 1.156l3.692 30.277a1.031 1.031 0 001.024.907h16.617a1.032 1.032 0 00.986-1.332L24.46 80.21l6.798-4.297a4.099 4.099 0 012.986-.387.96.96 0 00.063.014l13.829 2.548c3.758.672 7.633.125 11.058-1.562a1.02 1.02 0 00.127-.074l23.917-16.423a1.031 1.031 0 00.3-1.382 6.562 6.562 0 00-8.754-2.394zM69 54.813c1.5-.313 4.5.687 5 2.187l-10.577 5.38-.531.28c-.287-.816-1.358-2.48-1.892-3.16l8-4.688zM59 56l.024-.014c.813-.47 2.038-.995 2.976-.986.938.009 3.269.435 3 1.5L60 59c-3-.5-3 0-4.5-.5L59 56zM9.039 87.5L5.5 57.5h11l9 30H9.039zm49.461-12c-3.012 1.466-7.068 1.955-10.365 1.366l-13.83-2.553c-1.517-.374-2.395-.106-3.758.659A.915.915 0 0030.5 75L24 79l-4.686-15.66a9.995 9.995 0 003.766-2.107l2.259-2.01a14.225 14.225 0 0114.767-1.421l.949.459a12.034 12.034 0 005.21 1.194h11.03c1.352 0 2.163.182 3.205 1.045 1.042.863 1.748 3.671 2 5l-8.286-.235c-2.424-.109-4.362-.616-6.766-.284a1.03 1.03 0 00-.863.76c-.035.133-.043.27-.225-.362a1.032 1.032 0 001.17.878 37.794 37.794 0 016.881-.317l7.846.356h.047a1.031 1.031 0 001.031-1.03c0-.167-.432-1.494-.443-1.659L64 63l12-6.5c.873-.473 2.31-.404 3.29-.247.98.157 3.21 1.121 3.947 3.02L58.5 75.5z" fill="#4E4E4E"/><path d="M13.23 82.376a3.246 3.246 0 106.492 0 3.246 3.246 0 00-6.493 0zm3.246-1.184a1.185 1.185 0 110 2.37 1.185 1.185 0 010-2.37zM51.84 20.52v-3.398a7.827 7.827 0 10-15.653 0v3.398a7.827 7.827 0 1015.654 0zm-14.84 0V17c.5-3.5 1.748-4.748 2-5 .252-.252 2.486-2 5-2s3.919.919 5 2 2 3.471 2 5v3.5c0 1.529-.748 3.748-1.5 4.5-1.081 1.081-3.957 2.5-5.486 2.5-1.53 0-2.514 0-5.014-2-1.081-1.081-2-3.45-2-4.98z" fill="#4E4E4E"/><path d="M31.428 49.5h25.234a1.031 1.031 0 001.032-1.031v-2.367h17.275A1.031 1.031 0 0076 45.07v-6.693a7.733 7.733 0 00-7.313-7.712c-.508 0-.764.316-.986.59a4.73 4.73 0 01-7.467-.183 1.028 1.028 0 00-.854-.417c-1.34.03-2.647.41-3.793 1.105a8.737 8.737 0 00-6.102-3.001c-.507 0-.765.317-1.012.621a5.554 5.554 0 01-8.761-.215 1.022 1.022 0 00-.855-.418 8.694 8.694 0 00-6.365 3.023 7.684 7.684 0 00-3.592-1.105c-.507 0-.763.316-.984.59a4.734 4.734 0 01-7.468-.183 1.029 1.029 0 00-.855-.417 7.725 7.725 0 00-7.53 7.722v6.693a1.031 1.031 0 001.03 1.03h17.303v2.368a1.031 1.031 0 001.032 1.03zm32.82-15.482a6.78 6.78 0 002.782-.594c.875-.392 2.044-2.243 2.47-1.924 1.341.202 3.53 1.06 5 4 .568 1.136.467 1.644.469 3v6.57H57.694v-7.646c.001-1.373-1.068-3.702-1.694-4.924.673-.392 1.725-.915 2.5-1 .846-.308 2.069 1.525 2.949 1.922.88.398 1.834.6 2.8.596zm-25.391-4.106c.712.826 1.183 1.394 2.174 1.85a7.616 7.616 0 006.323.015c.993-.45 1.477-1.043 2.194-1.865.925.13 2.53.505 3.32.999.793.494 1.785 1.066 2.308 1.84a.138.138 0 00.006.01c.729 1.087 1.563 3.355 1.561 4.663l-.08 11.045H31.5V37.5c0-3.038 1.4-4.284 2.5-5.5 1.1-1.216 3.225-1.924 4.857-2.088zM13.094 45L13 38c0-2.5.91-2.992 2.144-4.373 1.234-1.382 2.95-1.856 4.45-1.856.635.722.88 1.226 1.755 1.623a6.797 6.797 0 005.58.014c.877-.392 1.431-1.19 2.071-1.908.71.106 2.38.637 3 1-.622 1.22-1.604 3.556-1.603 4.924V45H13.094z" fill="#4E4E4E"/><path d="M70.873 23.593v-2.975a6.98 6.98 0 00-11.916-4.935C57.648 16.992 57 18.649 57 20.5V24c0 1.851.648 3.22 1.957 4.529a6.98 6.98 0 0011.916-4.936zM58 24v-3.382c0-1.304.084-3.058 2-4.618.922-.922 2.589-1.5 3.893-1.5 1.304 0 3.685 1.078 4.607 2 .922.922 1.5 2.814 1.5 4.118V24c0 1.304-1.078 3.078-2 4-.922.922-2.803 1.5-4.107 1.5-1.304 0-3.47-.578-4.393-1.5-.922-.922-1.5-2.696-1.5-4zM31.087 23.593v-2.975a6.98 6.98 0 10-13.96 0v2.975a6.98 6.98 0 0013.96 0zM18 23.5V20c0-1.304 1.078-3.078 2-4 .922-.922 2.803-1.5 4.107-1.5 1.304 0 2.97.578 3.893 1.5.922.922 2 2 2 4.618V23.5c0 2.5-1.078 3.578-2 4.5-.922.922-2.589 1.5-3.893 1.5-1.304 0-3.185-.578-4.107-1.5-.922-.922-2-2.5-2-4.5z" fill="#4E4E4E"/></svg><svg fill="none" viewBox="0 0 104 99" id="delivery" xmlns="http://www.w3.org/2000/svg"><path d="M82.226 80.012C73.792 87.713 63.343 93.297 51.88 96.23 39.595 99.566 25 100.784 16.224 94.78 7.448 88.774 4.6 75.5 3.257 63.62 1.913 51.741 2.12 41.181 7.274 33.9c5.155-7.281 15.322-11.3 25.933-17.943C43.817 9.313 54.854 0 65.749 0c10.895 0 21.569 9.124 27.546 19.684 5.643 10.194 7.37 21.837 4.902 33.043-2.316 10.327-7.867 19.81-15.971 27.285z" fill="#EFEFEF"/><path d="M72.058 78.88a.414.414 0 01-.28-.105.348.348 0 01-.115-.257V39.846c0-.096.042-.188.116-.256a.414.414 0 01.28-.106H90.4c1.46.003 2.89.382 4.126 1.095 1.236.714 2.228 1.731 2.863 2.937l5.424 10.154c.527.979.797 2.057.791 3.148v18.204c-.009 1.024-.457 2.003-1.247 2.725-.79.723-1.86 1.13-2.975 1.134H72.058z" fill="#F79"/><path d="M90.401 39.847a7.95 7.95 0 013.909 1.035 7.083 7.083 0 012.732 2.765l5.424 10.023c.497.93.752 1.953.743 2.988v18.364c-.004.929-.409 1.818-1.126 2.473a4.009 4.009 0 01-2.7 1.023H72.058V39.847h18.343zm0-.726H72.058c-.21 0-.41.077-.559.213a.696.696 0 00-.231.513v38.671c0 .193.083.377.231.513.149.136.35.212.56.212h27.324c1.218-.003 2.385-.447 3.249-1.234.864-.787 1.356-1.855 1.368-2.972V56.702a6.934 6.934 0 00-.838-3.322l-5.408-10.067c-.683-1.25-1.733-2.302-3.032-3.035a8.75 8.75 0 00-4.32-1.113v-.044z" fill="#4E4E4E"/><path d="M79.648 61.17c-.28.005-.56-.04-.821-.134a2.148 2.148 0 01-.702-.415 1.948 1.948 0 01-.473-.631 1.81 1.81 0 01-.17-.75V46.78c-.002-.254.051-.505.156-.74.105-.235.26-.449.455-.628a2.11 2.11 0 01.685-.418 2.25 2.25 0 01.807-.143h10.769a2.01 2.01 0 011.019.261c.305.175.55.427.704.725l5.187 9.661c.279.514.425 1.08.427 1.654v2.407c0 .428-.185.837-.514 1.14-.33.301-.776.47-1.242.47H79.649z" fill="#fff"/><path d="M90.401 45.214c.285-.007.567.064.809.203.241.14.433.341.551.58l5.202 9.66c.236.454.366.949.38 1.451v2.408c.002.164-.032.327-.1.48a1.23 1.23 0 01-.294.406 1.36 1.36 0 01-.443.27 1.452 1.452 0 01-.523.092H79.648c-.454 0-.89-.165-1.213-.459a1.52 1.52 0 01-.51-1.108V46.78c0-.415.18-.814.5-1.108.32-.293.755-.458 1.208-.458H90.4zm0-.726H79.633c-.663 0-1.298.242-1.767.672a2.2 2.2 0 00-.732 1.62v12.46c.004.61.271 1.192.742 1.622.471.43 1.108.67 1.772.67h16.335c.57 0 1.117-.208 1.52-.578.404-.37.63-.871.63-1.395v-2.407a3.963 3.963 0 00-.458-1.814l-5.203-9.66a2.177 2.177 0 00-.848-.87 2.448 2.448 0 00-1.223-.32z" fill="#4E4E4E"/><path d="M3.684 78.866a3.446 3.446 0 01-2.325-.883c-.617-.566-.964-1.334-.964-2.134v-6.832c0-.096.042-.188.116-.256a.414.414 0 01.28-.106h71.267c.105 0 .206.038.28.106.074.068.116.16.116.256v9.487a.348.348 0 01-.116.256.414.414 0 01-.28.106H3.684z" fill="#CCC"/><path d="M72.058 69.017v9.487H3.684a3.107 3.107 0 01-1.11-.198 2.91 2.91 0 01-.94-.575 2.637 2.637 0 01-.627-.863 2.451 2.451 0 01-.216-1.019v-6.832h71.267zm0-.725H.791c-.21 0-.411.076-.56.212a.696.696 0 00-.231.513v6.832c0 .897.388 1.756 1.08 2.39a3.86 3.86 0 002.604.99h68.374c.21 0 .411-.076.56-.212a.696.696 0 00.231-.513v-9.487a.696.696 0 00-.231-.513.828.828 0 00-.56-.212z" fill="#4E4E4E"/><path d="M86.1 88.367c5.93 0 10.737-4.41 10.737-9.849 0-5.44-4.807-9.85-10.737-9.85s-10.737 4.41-10.737 9.85c0 5.44 4.807 9.85 10.737 9.85z" fill="#fff"/><path d="M86.1 69.032c2.05-.003 4.055.552 5.76 1.595 1.706 1.043 3.036 2.526 3.822 4.263a8.774 8.774 0 01.593 5.493c-.4 1.844-1.386 3.538-2.835 4.868-1.45 1.33-3.297 2.235-5.307 2.601-2.011.366-4.095.177-5.988-.544-1.893-.721-3.51-1.941-4.647-3.506-1.137-1.564-1.743-3.403-1.74-5.284 0-2.516 1.09-4.929 3.03-6.708 1.939-1.779 4.57-2.778 7.312-2.778zm0-.726c-2.19 0-4.33.596-6.15 1.712-1.82 1.115-3.239 2.701-4.076 4.556a9.377 9.377 0 00-.63 5.867c.427 1.97 1.481 3.78 3.03 5.2 1.547 1.42 3.52 2.386 5.667 2.778 2.147.392 4.372.19 6.395-.578 2.023-.768 3.751-2.07 4.968-3.74 1.216-1.67 1.865-3.632 1.865-5.64-.02-2.688-1.194-5.26-3.265-7.16-2.071-1.9-4.875-2.976-7.804-2.995z" fill="#4E4E4E"/><path d="M86.1 82.783a4.95 4.95 0 01-2.578-.726 4.363 4.363 0 01-1.706-1.917 3.937 3.937 0 01-.258-2.463 4.17 4.17 0 011.276-2.18c.65-.594 1.48-1 2.38-1.162a5.039 5.039 0 012.684.245c.85.323 1.574.87 2.084 1.57.51.701.783 1.525.783 2.368 0 .561-.121 1.117-.356 1.636-.234.518-.578.989-1.011 1.385a4.7 4.7 0 01-1.514.923 5.016 5.016 0 01-1.784.32z" fill="#CCC"/><path d="M86.1 74.616a4.53 4.53 0 012.363.658 3.996 3.996 0 011.567 1.75c.322.714.406 1.498.242 2.255a3.814 3.814 0 01-1.164 1.998 4.385 4.385 0 01-2.178 1.068c-.825.15-1.68.073-2.458-.222a4.196 4.196 0 01-1.909-1.437 3.677 3.677 0 01-.717-2.168c.005-1.034.454-2.024 1.25-2.755.798-.73 1.877-1.143 3.004-1.147zm0-.725a5.372 5.372 0 00-2.798.787 4.736 4.736 0 00-1.851 2.08 4.272 4.272 0 00-.28 2.672c.196.896.677 1.72 1.384 2.365a5.2 5.2 0 002.583 1.263 5.468 5.468 0 002.912-.266 4.976 4.976 0 002.261-1.705 4.36 4.36 0 00.85-2.569c0-.609-.132-1.212-.386-1.774a4.625 4.625 0 00-1.098-1.503 5.1 5.1 0 00-1.642-1.002 5.444 5.444 0 00-1.935-.348z" fill="#4E4E4E"/><path d="M3.953 75.85v-6.833H.791v6.832c-.002.35.071.695.216 1.018.144.323.357.617.627.864.269.246.588.442.94.575.353.132.73.2 1.11.198h3.163a3.104 3.104 0 01-1.11-.199 2.908 2.908 0 01-.941-.575 2.637 2.637 0 01-.627-.863 2.45 2.45 0 01-.216-1.018z" fill="#AAA"/><path d="M.79 69.38a.414.414 0 01-.279-.106.348.348 0 01-.116-.257V19.698c0-1.201.52-2.354 1.444-3.205.925-.85 2.18-1.331 3.49-1.335h62.207c1.31.004 2.565.484 3.49 1.335.924.851 1.444 2.004 1.444 3.205v49.32a.348.348 0 01-.116.255.414.414 0 01-.28.107H.791z" fill="#fff"/><path d="M67.536 15.492c1.204 0 2.358.438 3.209 1.22.851.78 1.33 1.839 1.33 2.943v49.319H.79V19.655c0-1.104.478-2.163 1.329-2.944.85-.78 2.005-1.22 3.209-1.22h62.207zm0-.725H5.329c-.7 0-1.393.126-2.04.372a5.384 5.384 0 00-1.728 1.06 4.883 4.883 0 00-1.155 1.585A4.54 4.54 0 000 19.655v49.319c0 .192.083.376.232.513.148.136.349.212.559.212h71.267c.21-.004.41-.08.56-.216a.727.727 0 00.247-.51V19.656c0-1.297-.562-2.54-1.561-3.457-1-.916-2.355-1.431-3.768-1.431z" fill="#4E4E4E"/><path d="M43.248 39.295c-.275 0-.546-.06-.791-.174l-7.1-3.38a.915.915 0 00-.427-.101.845.845 0 00-.427.102l-7.116 3.423a1.843 1.843 0 01-1.976-.261 1.575 1.575 0 01-.399-.522 1.456 1.456 0 01-.139-.624v-22.28c0-.097.042-.189.116-.257a.414.414 0 01.28-.106h19.307c.105 0 .205.038.28.106.074.068.115.16.115.256v22.237c0 .42-.181.822-.505 1.118a1.805 1.805 0 01-1.218.463z" fill="#F79"/><path d="M44.576 15.492v22.222c0 .324-.14.633-.39.862-.248.228-.586.357-.938.357-.209 0-.415-.045-.601-.13l-7.116-3.38a1.27 1.27 0 00-.6-.146 1.288 1.288 0 00-.617.145l-7.1 3.38c-.193.085-.404.13-.617.13a1.387 1.387 0 01-.919-.366 1.168 1.168 0 01-.378-.852V15.492h19.276zm0-.725H25.3c-.21 0-.41.076-.559.212a.696.696 0 00-.231.513v22.222c0 .516.223 1.01.62 1.375.398.364.937.569 1.498.569.337.002.668-.073.965-.218l7.116-3.38a.498.498 0 01.253 0c.077-.02.16-.02.237 0l7.116 3.38c.297.144.628.218.964.218a2.216 2.216 0 001.478-.58c.39-.363.61-.853.61-1.364V15.492a.696.696 0 00-.232-.513.828.828 0 00-.56-.212zM22.027 55.6H5.898a.977.977 0 00-.66.25.822.822 0 00-.206.935.84.84 0 00.202.28c.087.08.19.143.305.185a.992.992 0 00.36.061h16.128c.247 0 .485-.09.66-.25a.822.822 0 00.273-.606.822.822 0 00-.273-.605.977.977 0 00-.66-.25zM22.027 60.923H5.898a.978.978 0 00-.59.289.83.83 0 00-.236.574.83.83 0 00.236.575.978.978 0 00.59.288h16.13c.133.016.269.006.398-.03a.976.976 0 00.35-.179.882.882 0 00.238-.295.81.81 0 000-.718.882.882 0 00-.238-.295.978.978 0 00-.35-.178 1.031 1.031 0 00-.399-.031z" fill="#4E4E4E"/><path d="M8.491 15.492H5.33c-1.204 0-2.358.439-3.21 1.22-.85.78-1.328 1.839-1.328 2.943v49.319h3.162V19.655c0-1.104.478-2.163 1.33-2.944.85-.78 2.005-1.22 3.208-1.22z" fill="#E0E0E0"/><path d="M16.255 88.367c5.93 0 10.737-4.41 10.737-9.849 0-5.44-4.807-9.85-10.737-9.85S5.52 73.079 5.52 78.519c0 5.44 4.807 9.85 10.736 9.85z" fill="#fff"/><path d="M16.255 69.032c2.05 0 4.053.557 5.756 1.602 1.704 1.044 3.031 2.53 3.815 4.266a8.774 8.774 0 01.587 5.492c-.401 1.843-1.39 3.536-2.84 4.864-1.45 1.328-3.297 2.232-5.307 2.597-2.01.365-4.093.175-5.985-.546-1.892-.722-3.509-1.942-4.645-3.506-1.136-1.565-1.741-3.403-1.738-5.283 0-1.247.268-2.481.789-3.633a9.478 9.478 0 012.246-3.08 10.45 10.45 0 013.36-2.055 11.156 11.156 0 013.962-.718zm0-.726c-2.189 0-4.329.596-6.15 1.712-1.82 1.115-3.238 2.701-4.076 4.556a9.377 9.377 0 00-.63 5.867c.427 1.97 1.482 3.78 3.03 5.2 1.548 1.42 3.52 2.386 5.667 2.778 2.147.392 4.373.19 6.395-.578 2.023-.768 3.752-2.07 4.968-3.74 1.216-1.67 1.865-3.632 1.865-5.64-.02-2.688-1.193-5.26-3.265-7.16-2.07-1.9-4.874-2.976-7.804-2.995z" fill="#4E4E4E"/><path d="M16.255 82.783c-.919 0-1.818-.25-2.582-.719a4.368 4.368 0 01-1.713-1.914 3.939 3.939 0 01-.264-2.464 4.169 4.169 0 011.272-2.183 4.793 4.793 0 012.38-1.167 5.04 5.04 0 012.687.242c.849.323 1.575.87 2.086 1.571.51.701.783 1.526.783 2.37-.004 1.13-.495 2.212-1.366 3.01-.87.8-2.05 1.25-3.283 1.254z" fill="#CCC"/><path d="M16.255 74.616a4.53 4.53 0 012.36.665c.697.43 1.24 1.04 1.559 1.754.32.713.402 1.497.236 2.253a3.815 3.815 0 01-1.168 1.994 4.385 4.385 0 01-2.178 1.064c-.825.15-1.68.071-2.456-.224a4.196 4.196 0 01-1.906-1.438 3.676 3.676 0 01-.716-2.166c.004-1.036.456-2.028 1.256-2.76.8-.731 1.884-1.142 3.013-1.142zm0-.725c-.997 0-1.972.271-2.802.78a4.738 4.738 0 00-1.858 2.076 4.274 4.274 0 00-.287 2.674 4.523 4.523 0 001.38 2.37 5.2 5.2 0 002.583 1.266 5.468 5.468 0 002.915-.264 4.976 4.976 0 002.264-1.704 4.36 4.36 0 00.85-2.57c-.005-1.227-.537-2.402-1.482-3.269s-2.226-1.355-3.563-1.36z" fill="#4E4E4E"/><path d="M28.463 37.714V15.492H25.3v22.222c.003.21.064.414.176.596.113.181.274.333.469.442a1.446 1.446 0 001.3.05l1.328-.638a1.001 1.001 0 01-.11-.45z" fill="#EF608F"/><path d="M81.087 59.24V46.78c0-.415.18-.814.5-1.108a1.79 1.79 0 011.208-.458h-3.162c-.453 0-.888.165-1.208.459-.32.293-.5.692-.5 1.107v12.46c.004.417.188.816.51 1.11.323.292.76.457 1.213.457h3.163c-.454 0-.89-.165-1.213-.458a1.52 1.52 0 01-.51-1.109z" fill="#E0E0E0"/></svg></svg>