<svg width="21" height="12" fill="none" xmlns="http://www.w3.org/2000/svg"><path d="M20.518.813c.147-.47 0-.813-.693-.813h-2.299c-.584 0-.852.297-.998.624 0 0-1.169 2.741-2.824 4.519-.535.517-.78.68-1.07.68-.146 0-.358-.163-.358-.632V.813c0-.563-.169-.813-.656-.813H8.01c-.365 0-.585.26-.585.508 0 .532.828.655.913 2.156v3.254c0 .713-.133.843-.427.843-.778 0-2.673-2.751-3.798-5.901-.219-.612-.44-.859-1.027-.859H.788C.131.001 0 .298 0 .625c0 .587.779 3.49 3.627 7.331C5.526 10.578 8.2 12 10.635 12c1.46 0 1.64-.316 1.64-.86V9.158c0-.631.14-.758.602-.758.34 0 .924.165 2.287 1.428C16.722 11.326 16.98 12 17.854 12h2.298c.656 0 .984-.316.795-.939-.206-.62-.95-1.522-1.938-2.59-.536-.609-1.338-1.264-1.582-1.592-.34-.422-.242-.609 0-.984.001.001 2.8-3.792 3.091-5.081z" fill="#fff"/></svg>